# xmcd
#
# Track frame offsets:
#	150
#	17337
#	35964
#	52034
#	67643
#	84903
#	102178
#	121434
#	133250
#	154559
#	168458
#	180663
#	201331
#	220992
#	235191
#
# Disc length: 3370 seconds
#
# Revision: 1
# Processed by: cddbd v1.5.2PL0 Copyright (c) Steve Scherf et al.
# Submitted via: audiograbber 1.83.01
#
DISCID=ca0d280f
DTITLE=George Strait - CB90258 George Strait Greatest Hits
DYEAR=1900
DGENRE=
TTITLE0=Write This Down
TTITLE1=I Hate Everything
TTITLE2=The Best Day
TTITLE3=Tell Me Something Bad About Tulsa
TTITLE4=Living and Living Well
TTITLE5=Cowboys Like Us
TTITLE6=Desperately
TTITLE7=If You Ain't Lovin'
TTITLE8=If You Can Do Anything Else
TTITLE9=Nobody In His Right Mind Would've Left Her
TTITLE10=Overnight Male
TTITLE11=Murder on Music Row
TTITLE12=Run
TTITLE13=She'll Leave You With a Smile
TTITLE14=Go On
EXTD=
EXTT0=
EXTT1=
EXTT2=
EXTT3=
EXTT4=
EXTT5=
EXTT6=
EXTT7=
EXTT8=
EXTT9=
EXTT10=
EXTT11=
EXTT12=
EXTT13=
EXTT14=
PLAYORDER=
